<svg width="52" height="52" viewBox="0 0 52 52" fill="none" xmlns="http://www.w3.org/2000/svg">
<path d="M26 52C24.9 52 24 51.1 24 50V2C24 0.9 24.9 0 26 0C27.1 0 28 0.9 28 2V50C28 51.1 27.1 52 26 52Z" fill="#00003C"/>
<path d="M26 28H2C0.9 28 0 27.1 0 26C0 24.9 0.9 24 2 24H26C27.1 24 28 24.9 28 26C28 27.1 27.1 28 26 28Z" fill="#00003C"/>
<path d="M50 28H38C36.9 28 36 27.1 36 26C36 24.9 36.9 24 38 24H50C51.1 24 52 24.9 52 26C52 27.1 51.1 28 50 28Z" fill="#00003C"/>
<path d="M32 28.5C33.3807 28.5 34.5 27.3807 34.5 26C34.5 24.6193 33.3807 23.5 32 23.5C30.6193 23.5 29.5 24.6193 29.5 26C29.5 27.3807 30.6193 28.5 32 28.5Z" fill="#00003C"/>
</svg>
