<svg width="39" height="36" viewBox="0 0 39 36" fill="none" xmlns="http://www.w3.org/2000/svg">
<g clip-path="url(#clip0)">
<path d="M2.49704 15.505C1.11634 15.505 -0.00296021 16.6243 -0.00296021 18.005C-0.00296021 19.3857 1.11634 20.505 2.49704 20.505C3.87774 20.505 4.99704 19.3857 4.99704 18.005C4.99704 16.6243 3.87774 15.505 2.49704 15.505Z" fill="#00003C"/>
<path d="M8.49703 16.005L36.497 16.005C37.307 16.005 38.037 16.495 38.347 17.235C38.657 17.985 38.487 18.845 37.917 19.415L21.917 35.415C21.137 36.195 19.867 36.195 19.087 35.415C18.307 34.635 18.307 33.365 19.087 32.585L31.667 20.005L8.49703 20.005C7.39703 20.005 6.49704 19.105 6.49704 18.005C6.49704 16.905 7.39703 16.005 8.49703 16.005Z" fill="#00003C"/>
<path d="M20.497 0.00499535C21.007 0.00499535 21.517 0.204996 21.907 0.594995L37.907 16.595C38.687 17.375 38.687 18.645 37.907 19.425C37.127 20.205 35.857 20.205 35.077 19.425L19.077 3.42499C18.297 2.64499 18.297 1.375 19.077 0.594995C19.477 0.204996 19.987 0.00499535 20.497 0.00499535Z" fill="#00003C"/>
</g>
<defs>
<clipPath id="clip0">
<rect width="39" height="36" fill="white"/>
</clipPath>
</defs>
</svg>
