<svg width="39" height="36" viewBox="0 0 39 36" fill="none" xmlns="http://www.w3.org/2000/svg">
<g clip-path="url(#clip0)">
<path d="M36 20.5C37.3807 20.5 38.5 19.3807 38.5 18C38.5 16.6193 37.3807 15.5 36 15.5C34.6193 15.5 33.5 16.6193 33.5 18C33.5 19.3807 34.6193 20.5 36 20.5Z" fill="#00003C"/>
<path d="M30 20H2C1.19 20 0.460005 19.51 0.150005 18.77C-0.159995 18.02 0.0100049 17.16 0.580005 16.59L16.58 0.589997C17.36 -0.190003 18.63 -0.190003 19.41 0.589997C20.19 1.37 20.19 2.64 19.41 3.42L6.83 16H30C31.1 16 32 16.9 32 18C32 19.1 31.1 20 30 20Z" fill="#00003C"/>
<path d="M18 36C17.49 36 16.98 35.8 16.59 35.41L0.590005 19.41C-0.189995 18.63 -0.189995 17.36 0.590005 16.58C1.37 15.8 2.64 15.8 3.42 16.58L19.42 32.58C20.2 33.36 20.2 34.63 19.42 35.41C19.02 35.8 18.51 36 18 36Z" fill="#00003C"/>
</g>
<defs>
<clipPath id="clip0">
<rect width="39" height="36" fill="white"/>
</clipPath>
</defs>
</svg>
