<svg width="22" height="22" viewBox="0 0 22 22" fill="none" xmlns="http://www.w3.org/2000/svg">
<path d="M14.625 11C14.625 8.99839 13.0016 7.375 11 7.375C8.99838 7.375 7.375 8.99838 7.375 11C7.375 13.0016 8.99839 14.625 11 14.625C13.0016 14.625 14.625 13.0016 14.625 11ZM16.125 11C16.125 13.83 13.83 16.125 11 16.125C8.16997 16.125 5.875 13.83 5.875 11C5.875 8.16996 8.16996 5.875 11 5.875C13.83 5.875 16.125 8.16997 16.125 11Z" fill="black"/>
<path d="M14.6233 10.9983V12.8733C14.6233 14.6684 16.0783 16.1233 17.8733 16.1233C19.6684 16.1233 21.1233 14.6684 21.1233 12.8733V10.9983C21.1233 5.4066 16.59 0.8741 10.9982 0.875C5.4066 0.875 0.8741 5.40833 0.875 11.0001C0.875 16.5916 5.40822 21.1243 10.9993 21.1233C13.1904 21.1233 15.3216 20.4128 17.0728 19.0981C17.404 18.8494 17.471 18.3793 17.2223 18.048C16.9736 17.7168 16.5035 17.6498 16.1722 17.8985C14.6808 19.0182 12.8657 19.6233 10.9992 19.6233C6.2365 19.6241 2.375 15.7631 2.375 11C2.37423 6.23661 6.23513 2.375 10.9983 2.375C15.7617 2.37423 19.6233 6.23513 19.6233 10.9983V12.8733C19.6233 13.84 18.84 14.6233 17.8733 14.6233C16.9067 14.6233 16.1233 13.8399 16.1233 12.8733V10.9983C16.1233 10.5841 15.7875 10.2483 15.3733 10.2483C14.9591 10.2483 14.6233 10.5841 14.6233 10.9983Z" fill="black"/>
</svg>
