<svg width="52" height="33" viewBox="0 0 52 33" fill="none" xmlns="http://www.w3.org/2000/svg">
<path d="M42 32C40.9 32 40 31.1 40 30C40 28.9 40.9 28 42 28C45.31 28 48 25.31 48 22C48 18.69 45.31 16 42 16C40.9 16 40 15.1 40 14C40 12.9 40.9 12 42 12C47.51 12 52 16.49 52 22C52 27.51 47.51 32 42 32Z" fill="#00003C"/>
<path d="M42 32H34C32.9 32 32 31.1 32 30C32 28.9 32.9 28 34 28H42C43.1 28 44 28.9 44 30C44 31.1 43.1 32 42 32Z" fill="#00003C"/>
<path d="M42 16H3C1.9 16 1 15.1 1 14C1 12.9 1.9 12 3 12H42C43.1 12 44 12.9 44 14C44 15.1 43.1 16 42 16Z" fill="#00003C"/>
<path d="M14 27.31C13.49 27.31 12.98 27.11 12.59 26.72L1.27 15.41C0.489998 14.63 0.489998 13.36 1.27 12.58L12.58 1.27C13.36 0.490001 14.63 0.490001 15.41 1.27C16.19 2.05 16.19 3.32 15.41 4.1L5.51 14L15.41 23.9C16.19 24.68 16.19 25.95 15.41 26.73C15.02 27.12 14.51 27.31 14 27.31Z" fill="#00003C"/>
<path d="M26 32.5C27.3807 32.5 28.5 31.3807 28.5 30C28.5 28.6193 27.3807 27.5 26 27.5C24.6193 27.5 23.5 28.6193 23.5 30C23.5 31.3807 24.6193 32.5 26 32.5Z" fill="#00003C"/>
</svg>
