<svg width="52" height="52" viewBox="0 0 52 52" fill="none" xmlns="http://www.w3.org/2000/svg">
<path d="M14 44C15.1046 44 16 43.1046 16 42C16 40.8954 15.1046 40 14 40C12.8954 40 12 40.8954 12 42C12 43.1046 12.8954 44 14 44Z" fill="#00003C"/>
<path d="M22 44C23.1046 44 24 43.1046 24 42C24 40.8954 23.1046 40 22 40C20.8954 40 20 40.8954 20 42C20 43.1046 20.8954 44 22 44Z" fill="#00003C"/>
<path d="M30 44C31.1046 44 32 43.1046 32 42C32 40.8954 31.1046 40 30 40C28.8954 40 28 40.8954 28 42C28 43.1046 28.8954 44 30 44Z" fill="#00003C"/>
<path d="M14 36C15.1046 36 16 35.1046 16 34C16 32.8954 15.1046 32 14 32C12.8954 32 12 32.8954 12 34C12 35.1046 12.8954 36 14 36Z" fill="#00003C"/>
<path d="M22 36C23.1046 36 24 35.1046 24 34C24 32.8954 23.1046 32 22 32C20.8954 32 20 32.8954 20 34C20 35.1046 20.8954 36 22 36Z" fill="#00003C"/>
<path d="M30 36C31.1046 36 32 35.1046 32 34C32 32.8954 31.1046 32 30 32C28.8954 32 28 32.8954 28 34C28 35.1046 28.8954 36 30 36Z" fill="#00003C"/>
<path d="M14 28C15.1046 28 16 27.1046 16 26C16 24.8954 15.1046 24 14 24C12.8954 24 12 24.8954 12 26C12 27.1046 12.8954 28 14 28Z" fill="#00003C"/>
<path d="M22 28C23.1046 28 24 27.1046 24 26C24 24.8954 23.1046 24 22 24C20.8954 24 20 24.8954 20 26C20 27.1046 20.8954 28 22 28Z" fill="#00003C"/>
<path d="M30 28C31.1046 28 32 27.1046 32 26C32 24.8954 31.1046 24 30 24C28.8954 24 28 24.8954 28 26C28 27.1046 28.8954 28 30 28Z" fill="#00003C"/>
<path d="M38 44C39.1046 44 40 43.1046 40 42C40 40.8954 39.1046 40 38 40C36.8954 40 36 40.8954 36 42C36 43.1046 36.8954 44 38 44Z" fill="#00003C"/>
<path d="M38 36C39.1046 36 40 35.1046 40 34C40 32.8954 39.1046 32 38 32C36.8954 32 36 32.8954 36 34C36 35.1046 36.8954 36 38 36Z" fill="#00003C"/>
<path d="M38 28C39.1046 28 40 27.1046 40 26C40 24.8954 39.1046 24 38 24C36.8954 24 36 24.8954 36 26C36 27.1046 36.8954 28 38 28Z" fill="#00003C"/>
<path d="M50 20H2C0.9 20 0 19.1 0 18C0 16.9 0.9 16 2 16H50C51.1 16 52 16.9 52 18C52 19.1 51.1 20 50 20Z" fill="#00003C"/>
<path d="M50 52H2C0.9 52 0 51.1 0 50V10C0 8.9 0.9 8 2 8H50C51.1 8 52 8.9 52 10V50C52 51.1 51.1 52 50 52ZM4 48H48V12H4V48Z" fill="#00003C"/>
<path d="M10 12C8.9 12 8 11.1 8 10V2C8 0.9 8.9 0 10 0C11.1 0 12 0.9 12 2V10C12 11.1 11.1 12 10 12Z" fill="#00003C"/>
<path d="M42 12C40.9 12 40 11.1 40 10V2C40 0.9 40.9 0 42 0C43.1 0 44 0.9 44 2V10C44 11.1 43.1 12 42 12Z" fill="#00003C"/>
</svg>
