<svg width="52" height="36" viewBox="0 0 52 36" fill="none" xmlns="http://www.w3.org/2000/svg">
<g clip-path="url(#clip0)">
<path d="M27 27C26.49 27 25.98 26.8 25.59 26.41C24.81 25.63 24.81 24.36 25.59 23.58L48.59 0.580003C49.37 -0.199997 50.64 -0.199997 51.42 0.580003C52.2 1.36 52.2 2.63 51.42 3.41L28.42 26.41C28.02 26.8 27.51 27 27 27Z" fill="#00003C"/>
<path d="M18 36C17.49 36 16.98 35.8 16.59 35.41L0.590005 19.41C-0.189995 18.63 -0.189995 17.36 0.590005 16.58C1.37 15.8 2.64 15.8 3.42 16.58L19.42 32.58C20.2 33.36 20.2 34.63 19.42 35.41C19.02 35.8 18.51 36 18 36Z" fill="#00003C"/>
<path d="M22 32.5C23.3807 32.5 24.5 31.3807 24.5 30C24.5 28.6193 23.3807 27.5 22 27.5C20.6193 27.5 19.5 28.6193 19.5 30C19.5 31.3807 20.6193 32.5 22 32.5Z" fill="#00003C"/>
</g>
<defs>
<clipPath id="clip0">
<rect width="52" height="36" fill="white"/>
</clipPath>
</defs>
</svg>
