<svg width="40" height="40" viewBox="0 0 40 40" fill="none" xmlns="http://www.w3.org/2000/svg">
<g clip-path="url(#clip0)">
<path d="M2 40C1.49 40 0.979997 39.8 0.589997 39.41C-0.190003 38.63 -0.190003 37.36 0.589997 36.58L36.59 0.580003C37.37 -0.199997 38.64 -0.199997 39.42 0.580003C40.2 1.36 40.2 2.63 39.42 3.41L3.42 39.41C3.02 39.8 2.51 40 2 40Z" fill="#00003C"/>
<path d="M20 22C19.49 22 18.98 21.8 18.59 21.41L0.589997 3.41C-0.190003 2.63 -0.190003 1.36 0.589997 0.580003C1.37 -0.199997 2.64 -0.199997 3.42 0.580003L21.42 18.58C22.2 19.36 22.2 20.63 21.42 21.41C21.02 21.8 20.51 22 20 22Z" fill="#00003C"/>
<path d="M38 40C37.49 40 36.98 39.8 36.59 39.41L26.59 29.41C25.81 28.63 25.81 27.36 26.59 26.58C27.37 25.8 28.64 25.8 29.42 26.58L39.42 36.58C40.2 37.36 40.2 38.63 39.42 39.41C39.02 39.8 38.51 40 38 40Z" fill="#00003C"/>
<path d="M24 26.5C25.3807 26.5 26.5 25.3807 26.5 24C26.5 22.6193 25.3807 21.5 24 21.5C22.6193 21.5 21.5 22.6193 21.5 24C21.5 25.3807 22.6193 26.5 24 26.5Z" fill="#00003C"/>
</g>
<defs>
<clipPath id="clip0">
<rect width="40" height="40" fill="white"/>
</clipPath>
</defs>
</svg>
