<svg width="45" height="45" viewBox="0 0 45 45" fill="none" xmlns="http://www.w3.org/2000/svg">
<path d="M42.5 45C43.8807 45 45 43.8807 45 42.5C45 41.1193 43.8807 40 42.5 40C41.1193 40 40 41.1193 40 42.5C40 43.8807 41.1193 45 42.5 45Z" fill="#00003C"/>
<path d="M35.5 44.5H2.5C1.4 44.5 0.5 43.6 0.5 42.5C0.5 41.4 1.4 40.5 2.5 40.5H35.5C36.6 40.5 37.5 41.4 37.5 42.5C37.5 43.6 36.6 44.5 35.5 44.5Z" fill="#00003C"/>
<path d="M2.5 40.62C1.98 40.62 1.47 40.42 1.09 40.03C0.509999 39.45 0.339999 38.58 0.669999 37.83L4.91 27.93C5.01 27.7 5.15 27.48 5.33 27.3L31.49 1.14C32.27 0.36 33.54 0.36 34.32 1.14L39.98 6.8C40.76 7.58 40.76 8.85 39.98 9.63L13.81 35.79C13.63 35.97 13.42 36.11 13.18 36.21L3.28 40.45C3.03 40.56 2.77 40.62 2.5 40.62ZM8.43 29.86L6.31 34.81L11.26 32.69L35.74 8.21L32.91 5.38L8.43 29.86Z" fill="#00003C"/>
</svg>
