<svg width="22" height="22" viewBox="0 0 22 22" fill="none" xmlns="http://www.w3.org/2000/svg">
<path d="M17.5375 2.7C16.2119 2.7 15.1375 3.77439 15.1375 5.1C15.1375 6.42561 16.2119 7.5 17.5375 7.5C18.8631 7.5 19.9375 6.42561 19.9375 5.1C19.9375 3.77439 18.8631 2.7 17.5375 2.7ZM17.5375 2C19.2497 2 20.6375 3.38779 20.6375 5.1C20.6375 6.81221 19.2497 8.2 17.5375 8.2C15.8253 8.2 14.4375 6.81221 14.4375 5.1C14.4375 3.38779 15.8253 2 17.5375 2Z" fill="black"/>
<path d="M20.975 15.075C21.1683 15.075 21.325 14.9183 21.325 14.725V12.6625C21.325 10.5708 19.6292 8.875 17.5375 8.875C16.718 8.875 15.9202 9.14086 15.2649 9.63255C15.1103 9.74857 15.079 9.96796 15.195 10.1226C15.3111 10.2772 15.5304 10.3085 15.6851 10.1924C16.2191 9.79173 16.8695 9.575 17.5375 9.575C19.2426 9.575 20.625 10.9574 20.625 12.6625V14.375H19.6C19.4235 14.375 19.2746 14.5064 19.2527 14.6816L18.6035 19.875H16.4714L16.3375 18.8065C16.3134 18.6147 16.1385 18.4787 15.9467 18.5027C15.7549 18.5268 15.6189 18.7017 15.6429 18.8935L15.8152 20.2685C15.8371 20.4436 15.986 20.575 16.1625 20.575H18.9125C19.089 20.575 19.2379 20.4436 19.2598 20.2684L19.909 15.075H20.975Z" fill="black"/>
<path d="M3.7875 2.7C2.46188 2.7 1.3875 3.77438 1.3875 5.1C1.3875 6.42562 2.46188 7.5 3.7875 7.5C5.11312 7.5 6.1875 6.42562 6.1875 5.1C6.1875 3.77438 5.11312 2.7 3.7875 2.7ZM3.7875 2C5.49972 2 6.8875 3.38778 6.8875 5.1C6.8875 6.81222 5.49972 8.2 3.7875 8.2C2.07528 8.2 0.6875 6.81222 0.6875 5.1C0.6875 3.38778 2.07528 2 3.7875 2Z" fill="black"/>
<path d="M2.72147 19.875L2.0723 14.6816C2.0504 14.5064 1.90151 14.375 1.725 14.375H0.7V12.6625C0.7 10.9574 2.08239 9.575 3.7875 9.575C4.45551 9.575 5.10589 9.79173 5.63994 10.1925C5.79455 10.3085 6.01394 10.2772 6.12995 10.1226C6.24597 9.96795 6.21468 9.74856 6.06006 9.63255C5.40478 9.14085 4.60697 8.875 3.7875 8.875C1.69579 8.875 0 10.5708 0 12.6625V14.725C0 14.9183 0.1567 15.075 0.35 15.075H1.41603L2.0652 20.2684C2.0871 20.4436 2.23599 20.575 2.4125 20.575H5.1625C5.33897 20.575 5.48784 20.4436 5.50978 20.2685L5.68211 18.8935C5.70615 18.7017 5.57015 18.5268 5.37836 18.5027C5.18656 18.4787 5.01159 18.6147 4.98755 18.8065L4.85363 19.875H2.72147Z" fill="black"/>
<path d="M10.6625 6.825C9.71639 6.825 8.95 7.59139 8.95 8.5375C8.95 9.4836 9.7164 10.25 10.6625 10.25C11.6086 10.25 12.375 9.4836 12.375 8.5375C12.375 7.59139 11.6086 6.825 10.6625 6.825ZM10.6625 6.125C11.9952 6.125 13.075 7.20479 13.075 8.5375C13.075 9.8702 11.9952 10.95 10.6625 10.95C9.3298 10.95 8.25 9.8702 8.25 8.5375C8.25 7.20479 9.32979 6.125 10.6625 6.125Z" fill="black"/>
<path d="M8.94226 20.2825C8.97039 20.4513 9.11641 20.575 9.2875 20.575H10.6625C10.8558 20.575 11.0125 20.4183 11.0125 20.225C11.0125 20.0317 10.8558 19.875 10.6625 19.875H9.58399L8.94524 16.0425C8.91711 15.8737 8.77109 15.75 8.6 15.75H7.575V15.4125C7.575 13.7074 8.9574 12.325 10.6625 12.325C10.8558 12.325 11.0125 12.1683 11.0125 11.975C11.0125 11.7817 10.8558 11.625 10.6625 11.625C8.5708 11.625 6.875 13.3208 6.875 15.4125V16.1C6.875 16.2933 7.0317 16.45 7.225 16.45H8.30351L8.94226 20.2825Z" fill="black"/>
<path d="M12.725 15.75C12.5539 15.75 12.4079 15.8737 12.3798 16.0425L11.741 19.875H10.6625C10.4692 19.875 10.3125 20.0317 10.3125 20.225C10.3125 20.4183 10.4692 20.575 10.6625 20.575H12.0375C12.2086 20.575 12.3546 20.4513 12.3827 20.2825L13.0215 16.45H14.1C14.2933 16.45 14.45 16.2933 14.45 16.1V15.4125C14.45 13.3208 12.7542 11.625 10.6625 11.625C10.4692 11.625 10.3125 11.7817 10.3125 11.975C10.3125 12.1683 10.4692 12.325 10.6625 12.325C12.3676 12.325 13.75 13.7074 13.75 15.4125V15.75H12.725Z" fill="black"/>
</svg>
