<svg width="20" height="21" viewBox="0 0 20 21" fill="none" xmlns="http://www.w3.org/2000/svg">
<path d="M0.625 12.875H19.375C19.6511 12.875 19.875 12.6511 19.875 12.375C19.875 12.0989 19.6511 11.875 19.375 11.875H0.625C0.348858 11.875 0.125 12.0989 0.125 12.375C0.125 12.6511 0.348858 12.875 0.625 12.875Z" fill="black"/>
<path d="M0.625 16.625H19.375C19.6511 16.625 19.875 16.4011 19.875 16.125C19.875 15.8489 19.6511 15.625 19.375 15.625H0.625C0.348858 15.625 0.125 15.8489 0.125 16.125C0.125 16.4011 0.348858 16.625 0.625 16.625Z" fill="black"/>
<path d="M1.875 1.625C1.46114 1.625 1.125 1.96114 1.125 2.375V18.625C1.125 19.0389 1.46114 19.375 1.875 19.375H18.125C18.5389 19.375 18.875 19.0389 18.875 18.625V2.375C18.875 1.96114 18.5389 1.625 18.125 1.625H1.875ZM1.875 0.625H18.125C19.0911 0.625 19.875 1.40886 19.875 2.375V18.625C19.875 19.5911 19.0911 20.375 18.125 20.375H1.875C0.908858 20.375 0.125 19.5911 0.125 18.625V2.375C0.125 1.40886 0.908858 0.625 1.875 0.625Z" fill="black"/>
<path d="M0.937334 11.5137L5.93733 7.51375C6.54669 7.02641 7.3834 6.93771 8.08155 7.28646L11.4697 8.98053C12.5163 9.50436 13.7715 9.37157 14.6856 8.64045L19.6856 4.64042C19.9013 4.46792 19.9362 4.15327 19.7637 3.93764C19.5912 3.72201 19.2766 3.68705 19.0609 3.85955L14.0609 7.85955C13.4516 8.34696 12.6149 8.43547 11.9171 8.08619L8.5286 6.39194C7.48152 5.8689 6.22658 6.00194 5.3127 6.73284L0.312642 10.7329C0.0970102 10.9054 0.0620484 11.22 0.234552 11.4356C0.407056 11.6513 0.721702 11.6862 0.937334 11.5137Z" fill="black"/>
<path d="M6.375 6.59375V19.8729C6.375 20.149 6.59886 20.3729 6.875 20.3729C7.15114 20.3729 7.375 20.149 7.375 19.8729V6.59375C7.375 6.31761 7.15114 6.09375 6.875 6.09375C6.59886 6.09375 6.375 6.31761 6.375 6.59375Z" fill="black"/>
<path d="M12.625 8.77734V19.874C12.625 20.1501 12.8489 20.374 13.125 20.374C13.4011 20.374 13.625 20.1501 13.625 19.874V8.77734C13.625 8.5012 13.4011 8.27734 13.125 8.27734C12.8489 8.27734 12.625 8.5012 12.625 8.77734Z" fill="black"/>
</svg>
