<svg width="19" height="19" viewBox="0 0 19 19" fill="none" xmlns="http://www.w3.org/2000/svg">
<path d="M18 2H1C0.447715 2 0 2.44772 0 3C0 3.55228 0.447715 4 1 4H18C18.5523 4 19 3.55228 19 3C19 2.44772 18.5523 2 18 2Z" fill="black"/>
<path d="M18 9H5C4.44772 9 4 9.44772 4 10C4 10.5523 4.44772 11 5 11H18C18.5523 11 19 10.5523 19 10C19 9.44772 18.5523 9 18 9Z" fill="black"/>
<path d="M2 10C2 9.44772 1.55228 9 1 9C0.447715 9 0 9.44772 0 10C0 10.5523 0.447715 11 1 11C1.55228 11 2 10.5523 2 10Z" fill="black"/>
<path d="M18 16H1C0.447715 16 0 16.4477 0 17C0 17.5523 0.447715 18 1 18H18C18.5523 18 19 17.5523 19 17C19 16.4477 18.5523 16 18 16Z" fill="black"/>
</svg>
