<svg width="22" height="22" viewBox="0 0 22 22" fill="none" xmlns="http://www.w3.org/2000/svg">
<path d="M17.25 14.25C17.25 16.5364 14.5499 18.5 11.125 18.5C7.70015 18.5 5 16.5364 5 14.25C5 13.8358 4.66421 13.5 4.25 13.5C3.83579 13.5 3.5 13.8358 3.5 14.25C3.5 17.4867 6.95605 20 11.125 20C15.294 20 18.75 17.4867 18.75 14.25C18.75 13.8358 18.4142 13.5 18 13.5C17.5858 13.5 17.25 13.8358 17.25 14.25Z" fill="black"/>
<path d="M18.3979 12.8858C20.0822 11.8316 21.1464 10.0228 21.249 8.03874C21.25 4.05481 16.6678 1 11.125 1C5.58222 1 1 4.05481 1 8C1.10363 10.0228 2.16777 11.8316 3.8521 12.8858C4.20322 13.1055 4.666 12.999 4.88575 12.6479C5.1055 12.2968 4.99901 11.834 4.6479 11.6142C3.37831 10.8197 2.57634 9.45651 2.499 7.96126C2.5 5.04185 6.31277 2.5 11.125 2.5C15.9372 2.5 19.75 5.04185 19.75 8C19.6737 9.45653 18.8717 10.8197 17.6021 11.6142C17.251 11.834 17.1445 12.2968 17.3642 12.6479C17.584 12.999 18.0468 13.1055 18.3979 12.8858Z" fill="black"/>
<path d="M7.5 11.749V7.82812C7.5 7.41391 7.16421 7.07812 6.75 7.07812C6.33579 7.07812 6 7.41391 6 7.82812V11.749C6 12.1632 6.33579 12.499 6.75 12.499C7.16421 12.499 7.5 12.1632 7.5 11.749Z" fill="black"/>
<path d="M16.25 11.749V7.82812C16.25 7.41391 15.9142 7.07812 15.5 7.07812C15.0858 7.07812 14.75 7.41391 14.75 7.82812V11.749C14.75 12.1632 15.0858 12.499 15.5 12.499C15.9142 12.499 16.25 12.1632 16.25 11.749Z" fill="black"/>
<path d="M4.25 12.5H18C18.4142 12.5 18.75 12.1642 18.75 11.75C18.75 11.3358 18.4142 11 18 11H4.25C3.83579 11 3.5 11.3358 3.5 11.75C3.5 12.1642 3.83579 12.5 4.25 12.5Z" fill="black"/>
<path d="M11.125 5C10.1584 5 9.375 5.78338 9.375 6.75C9.375 7.71662 10.1584 8.5 11.125 8.5C12.0916 8.5 12.875 7.7166 12.875 6.75C12.875 5.7834 12.0916 5 11.125 5ZM11.125 3.5C12.92 3.5 14.375 4.95497 14.375 6.75C14.375 8.54503 12.92 10 11.125 10C9.32996 10 7.875 8.54504 7.875 6.75C7.875 4.95496 9.32996 3.5 11.125 3.5Z" fill="black"/>
<path d="M5.00001 13.5V9.47167C4.99933 9.25499 5.1346 9.06455 5.33668 8.99497C6.46056 8.61985 7.62991 8.36802 8.81745 8.24608C9.22949 8.20376 9.52922 7.83543 9.48691 7.42339C9.4446 7.01134 9.07627 6.71161 8.66423 6.75392C7.3673 6.88709 6.09005 7.16216 4.85503 7.57442C4.03904 7.85534 3.49734 8.61802 3.50001 9.47401L3.50001 14.25C3.50001 14.6642 3.83579 15 4.25001 15H18C18.4142 15 18.75 14.6642 18.75 14.25V9.47167C18.75 8.6185 18.2089 7.8597 17.4024 7.5811C16.16 7.1646 14.8825 6.88795 13.5863 6.75397C13.1743 6.71139 12.8058 7.01087 12.7632 7.42289C12.7206 7.83491 13.0201 8.20344 13.4321 8.24602C14.6185 8.36865 15.7878 8.62188 16.9191 9.00111C17.1147 9.06871 17.25 9.25839 17.25 9.47167V13.5H5.00001Z" fill="black"/>
</svg>
