<svg width="44" height="48" viewBox="0 0 44 48" fill="none" xmlns="http://www.w3.org/2000/svg">
<path d="M34 24.5C35.3807 24.5 36.5 23.3807 36.5 22C36.5 20.6193 35.3807 19.5 34 19.5C32.6193 19.5 31.5 20.6193 31.5 22C31.5 23.3807 32.6193 24.5 34 24.5Z" fill="#00003C"/>
<path d="M22.04 39.79C21.05 39.79 20.25 38.99 20.25 38V30C20.25 29.01 21.05 28.21 22.04 28.21C23.03 28.21 23.83 29.01 23.83 30V38C23.83 38.99 23.03 39.79 22.04 39.79Z" fill="#00003C"/>
<path d="M42 48H2C0.9 48 0 47.1 0 46V22C0 20.9 0.9 20 2 20H28C29.1 20 30 20.9 30 22C30 23.1 29.1 24 28 24H4V44H40V22C40 20.9 40.9 20 42 20C43.1 20 44 20.9 44 22V46C44 47.1 43.1 48 42 48Z" fill="#00003C"/>
<path d="M10.04 24C8.94 24 8.04 23.1 8.04 22V14C8.04 6.28 14.32 0 22.04 0C29.76 0 36.04 6.28 36.04 14C36.04 15.1 35.14 16 34.04 16C32.94 16 32.04 15.1 32.04 14C32.04 8.49 27.55 4 22.04 4C16.53 4 12.04 8.49 12.04 14V22C12.04 23.1 11.15 24 10.04 24Z" fill="#00003C"/>
</svg>
