<svg width="22" height="22" viewBox="0 0 22 22" fill="none" xmlns="http://www.w3.org/2000/svg">
<path d="M15.6345 18.4199C15.8544 18.2533 15.8977 17.9394 15.7308 17.719C15.7178 17.7018 15.701 17.6827 15.6804 17.6621L13.1021 15.0838C12.9066 14.8884 12.5903 14.8883 12.3952 15.083L11.0692 16.4098C10.3856 17.0928 10.3856 18.2011 11.0696 18.8851L11.7916 19.6076C13.1235 19.7065 14.4098 19.3215 15.6345 18.4199ZM3.11354 10.9299C3.79649 11.6128 4.90496 11.6128 5.58788 10.9299L6.91373 9.60399C7.10919 9.40853 7.10929 9.09222 6.91456 8.89715L4.33397 6.31573C4.13979 6.11988 3.823 6.11854 3.62407 6.31576C3.60899 6.33054 3.59352 6.34821 3.58459 6.35997C2.68022 7.58774 2.29398 8.87538 2.39257 10.2082L3.11354 10.9299ZM9.30387 18.8928C8.81544 17.7141 9.05036 16.3066 10.0086 15.3491L11.3338 14.0232C12.1164 13.2418 13.3818 13.2422 14.1627 14.0232L16.741 16.6015C16.8088 16.6692 16.871 16.74 16.9269 16.8139C17.5936 17.6941 17.4204 18.9487 16.5321 19.6217C12.8155 22.358 8.67183 21.2631 4.70443 17.2937C0.735408 13.3227 -0.359094 9.1847 2.38197 5.46351C2.44043 5.38601 2.50508 5.31218 2.571 5.24758C3.35514 4.4701 4.62166 4.47546 5.39698 5.25742L7.97439 7.83566C8.75574 8.61836 8.75533 9.88371 7.9744 10.6646L6.64854 11.9905C5.6915 12.9475 4.28523 13.1826 3.10736 12.6957C3.67466 13.8524 4.56716 15.0345 5.76535 16.2333C6.96374 17.4323 8.14638 18.3252 9.30387 18.8928Z" fill="black"/>
<path d="M10.375 8.625C12.0316 8.625 13.375 9.96839 13.375 11.625C13.375 12.0392 13.7108 12.375 14.125 12.375C14.5392 12.375 14.875 12.0392 14.875 11.625C14.875 9.13997 12.86 7.125 10.375 7.125C9.96079 7.125 9.625 7.46079 9.625 7.875C9.625 8.28921 9.96079 8.625 10.375 8.625Z" fill="black"/>
<path d="M10.375 5.5C13.7575 5.5 16.5 8.24253 16.5 11.625C16.5 12.0392 16.8358 12.375 17.25 12.375C17.6642 12.375 18 12.0392 18 11.625C18 7.41411 14.5859 4 10.375 4C9.96079 4 9.625 4.33579 9.625 4.75C9.625 5.16421 9.96079 5.5 10.375 5.5Z" fill="black"/>
<path d="M10.375 2.375C15.4833 2.375 19.625 6.51671 19.625 11.625C19.625 12.0392 19.9608 12.375 20.375 12.375C20.7892 12.375 21.125 12.0392 21.125 11.625C21.125 5.68829 16.3117 0.875 10.375 0.875C9.96079 0.875 9.625 1.21079 9.625 1.625C9.625 2.03921 9.96079 2.375 10.375 2.375Z" fill="black"/>
</svg>
