<svg width="22" height="22" viewBox="0 0 22 22" fill="none" xmlns="http://www.w3.org/2000/svg">
<path d="M21.2475 9.71739C21.2469 9.78216 21.2469 9.78216 21.2441 9.84097C21.1645 11.4573 19.7901 12.7035 18.2109 12.6249H14.4381L10.3572 17.6516C10.0405 18.0306 9.57302 18.2499 9.07917 18.2499H7.32917C7.066 18.2499 6.80703 18.1874 6.57216 18.0669C5.75964 17.6493 5.4388 16.6524 5.84737 15.8567L7.40072 12.6249L5.2241 12.6249C4.19292 12.6225 3.26192 12.0079 2.85924 11.0686L1.13128 7.16592C1.04642 6.96437 1.00154 6.74724 1.00002 6.52693C0.995473 5.60676 1.73722 4.8561 2.69435 4.85226L4.60519 4.9356C4.87727 4.94747 5.12154 5.1059 5.24333 5.34948L5.95237 6.76755L18.1959 6.74991C19.9006 6.74127 21.2397 8.06872 21.2475 9.71739ZM2.66537 6.35154C2.57374 6.352 2.49955 6.42708 2.49999 6.51805C2.50014 6.53989 2.50489 6.56282 2.50829 6.57123L4.23433 10.4694C4.4045 10.8663 4.79476 11.1239 5.22584 11.1249H8.59334C9.14578 11.1249 9.50863 11.7019 9.26932 12.1998L7.19063 16.524C7.15149 16.6003 7.18154 16.6936 7.25721 16.7325C7.27964 16.744 7.30401 16.7499 7.32917 16.7499H9.07917C9.12785 16.7499 9.17402 16.7282 9.19939 16.698L13.4986 11.4022C13.641 11.2268 13.8549 11.1249 14.0809 11.1249L18.2478 11.1258C19.0362 11.1646 19.7071 10.5563 19.7463 9.7605C19.7473 9.73932 19.7473 9.73932 19.7475 9.72093C19.7437 8.904 19.079 8.24518 18.2592 8.24905C18.2436 8.24913 5.49025 8.26822 5.49025 8.26822C5.20579 8.26863 4.94557 8.10807 4.81835 7.85363L4.09891 6.41474L2.66537 6.35154Z" fill="black"/>
<path d="M14.8235 7.01804L12.3302 3.66804C12.0124 3.24645 11.5199 3 10.9969 3H9.27354C8.35044 3.00304 7.60635 3.75135 7.60938 4.67165C7.6109 4.92868 7.67016 5.17959 7.7835 5.40779L8.98204 7.83236C9.1656 8.20368 9.61542 8.35589 9.98674 8.17234C10.3581 7.98878 10.5103 7.53896 10.3267 7.16764L9.12755 4.74181C9.11559 4.71773 9.10953 4.69207 9.10937 4.66475C9.10907 4.57514 9.18349 4.5003 9.27601 4.5L10.9969 4.5C11.0482 4.5 11.0976 4.5247 11.1297 4.56733L13.6202 7.91362C13.8675 8.2459 14.3374 8.31479 14.6697 8.06748C15.002 7.82017 15.0708 7.35032 14.8235 7.01804Z" fill="black"/>
</svg>
