<svg width="45" height="44" viewBox="0 0 45 44" fill="none" xmlns="http://www.w3.org/2000/svg">
<path d="M15 11H8C6.9 11 6 10.11 6 9V2C6 0.9 6.89 0 8 0C9.11 0 10 0.89 10 2V7H15C16.1 7 17 7.89 17 9C17 10.11 16.1 11 15 11Z" fill="#00003C"/>
<path d="M22.92 44C21.84 44 20.75 43.92 19.65 43.76C13.8 42.91 8.64001 39.84 5.11001 35.13C3.00001 32.31 1.59001 29 1.02001 25.55C0.840014 24.46 1.58001 23.43 2.67001 23.25C3.76001 23.07 4.79001 23.81 4.97001 24.9C5.43001 27.72 6.59001 30.43 8.31001 32.73C11.2 36.59 15.43 39.1 20.22 39.8C25.02 40.5 29.8 39.3 33.69 36.43C37.57 33.56 40.09 29.37 40.79 24.62C41.49 19.87 40.29 15.12 37.41 11.27C34.52 7.41 30.29 4.9 25.5 4.2C20.71 3.5 15.93 4.69 12.04 7.57C11.15 8.23 9.90001 8.04 9.24001 7.15C8.58001 6.26 8.77001 5.01 9.66001 4.35C14.4 0.85 20.23 -0.610009 26.08 0.240001C31.93 1.09 37.09 4.16 40.62 8.87C44.15 13.59 45.62 19.39 44.76 25.2C43.9 31.01 40.82 36.14 36.08 39.64C32.22 42.5 27.64 44 22.92 44Z" fill="#00003C"/>
<path d="M3 20.5C4.3807 20.5 5.5 19.3807 5.5 18C5.5 16.6193 4.3807 15.5 3 15.5C1.6193 15.5 0.5 16.6193 0.5 18C0.5 19.3807 1.6193 20.5 3 20.5Z" fill="#00003C"/>
</svg>
