<svg width="52" height="52" viewBox="0 0 52 52" fill="none" xmlns="http://www.w3.org/2000/svg">
<g clip-path="url(#clip0)">
<path d="M20.5 41C9.2 41 0 31.8 0 20.5C0 9.2 9.2 0 20.5 0C31.8 0 41 9.2 41 20.5C41 31.8 31.8 41 20.5 41ZM20.5 4C11.4 4 4 11.4 4 20.5C4 29.6 11.4 37 20.5 37C29.6 37 37 29.6 37 20.5C37 11.4 29.6 4 20.5 4Z" fill="#00003C"/>
<path d="M50 52C49.49 52 48.98 51.8 48.59 51.41L40.59 43.41C39.81 42.63 39.81 41.36 40.59 40.58C41.37 39.8 42.64 39.8 43.42 40.58L51.42 48.58C52.2 49.36 52.2 50.63 51.42 51.41C51.02 51.8 50.51 52 50 52Z" fill="#00003C"/>
<path d="M38 40.5C39.3807 40.5 40.5 39.3807 40.5 38C40.5 36.6193 39.3807 35.5 38 35.5C36.6193 35.5 35.5 36.6193 35.5 38C35.5 39.3807 36.6193 40.5 38 40.5Z" fill="#00003C"/>
</g>
<defs>
<clipPath id="clip0">
<rect width="52" height="52" fill="white"/>
</clipPath>
</defs>
</svg>
