<svg width="52" height="50" viewBox="0 0 52 50" fill="none" xmlns="http://www.w3.org/2000/svg">
<path d="M42 50H10C8.99001 50 8.13001 49.24 8.01001 48.23L4.01001 14.23C3.88001 13.13 4.67001 12.14 5.76001 12.01C6.85001 11.88 7.85001 12.67 7.98001 13.76L11.78 46H40.22L44.01 13.77C44.14 12.67 45.14 11.88 46.23 12.02C47.33 12.15 48.11 13.14 47.98 14.24L43.98 48.24C43.87 49.24 43.01 50 42 50Z" fill="#00003C"/>
<path d="M50 16H2C0.9 16 0 15.1 0 14C0 12.9 0.9 12 2 12H50C51.1 12 52 12.9 52 14C52 15.1 51.1 16 50 16Z" fill="#00003C"/>
<path d="M38 16C36.9 16 36 15.1 36 14C36 8.49 31.51 4 26 4C20.49 4 16 8.49 16 14C16 15.1 15.1 16 14 16C12.9 16 12 15.1 12 14C12 6.28 18.28 0 26 0C33.72 0 40 6.28 40 14C40 15.1 39.1 16 38 16Z" fill="#00003C"/>
<path d="M26.04 35.79C25.05 35.79 24.25 34.99 24.25 34V26C24.25 25.01 25.05 24.21 26.04 24.21C27.03 24.21 27.83 25.01 27.83 26V34C27.83 34.99 27.03 35.79 26.04 35.79Z" fill="#00003C"/>
<path d="M34 35.79C33.01 35.79 32.21 34.99 32.21 34V26C32.21 25.01 33.01 24.21 34 24.21C34.99 24.21 35.79 25.01 35.79 26V34C35.79 34.99 34.99 35.79 34 35.79Z" fill="#00003C"/>
<path d="M18 35.79C17.01 35.79 16.21 34.99 16.21 34V26C16.21 25.01 17.01 24.21 18 24.21C18.99 24.21 19.79 25.01 19.79 26V34C19.79 34.99 18.99 35.79 18 35.79Z" fill="#00003C"/>
</svg>
