<svg width="52" height="43" viewBox="0 0 52 43" fill="none" xmlns="http://www.w3.org/2000/svg">
<path d="M26 28C24.9 28 24 27.1 24 26V3C24 1.9 24.9 1 26 1C27.1 1 28 1.9 28 3V26C28 27.1 27.1 28 26 28Z" fill="#00003C"/>
<path d="M26 35.5C27.3807 35.5 28.5 34.3807 28.5 33C28.5 31.6193 27.3807 30.5 26 30.5C24.6193 30.5 23.5 31.6193 23.5 33C23.5 34.3807 24.6193 35.5 26 35.5Z" fill="#00003C"/>
<path d="M50 43H2C0.9 43 0 42.1 0 41V25C0 23.9 0.9 23 2 23C3.1 23 4 23.9 4 25V39H48V25C48 23.9 48.9 23 50 23C51.1 23 52 23.9 52 25V41C52 42.1 51.1 43 50 43Z" fill="#00003C"/>
<path d="M37.35 16.16C36.84 16.16 36.33 15.96 35.94 15.57L26.04 5.67L16.14 15.57C15.36 16.35 14.09 16.35 13.31 15.57C12.53 14.79 12.53 13.52 13.31 12.74L24.62 1.43C25.4 0.649999 26.67 0.649999 27.45 1.43L38.76 12.74C39.54 13.52 39.54 14.79 38.76 15.57C38.37 15.96 37.86 16.16 37.35 16.16Z" fill="#00003C"/>
</svg>
