<svg width="44" height="51" viewBox="0 0 44 51" fill="none" xmlns="http://www.w3.org/2000/svg">
<path d="M10 51C11.3807 51 12.5 49.8807 12.5 48.5C12.5 47.1193 11.3807 46 10 46C8.6193 46 7.5 47.1193 7.5 48.5C7.5 49.8807 8.6193 51 10 51Z" fill="#00003C"/>
<path d="M22 24.5C25.21 24.5 28.22 23.25 30.49 20.99C32.76 18.73 34 15.71 34 12.5C34 9.29 32.75 6.28 30.49 4.01C28.23 1.74 25.21 0.5 22 0.5C18.79 0.5 15.78 1.75 13.51 4.01C11.24 6.27 10 9.29 10 12.5C10 15.71 11.25 18.72 13.51 20.99C15.77 23.26 18.79 24.5 22 24.5ZM16.34 6.84C17.9 5.28 19.95 4.5 22 4.5C24.05 4.5 26.1 5.28 27.66 6.84C30.78 9.96 30.78 15.04 27.66 18.15C24.54 21.26 19.46 21.27 16.35 18.15C13.24 15.03 13.22 9.96 16.34 6.84Z" fill="#00003C"/>
<path d="M22 26.5C9.87 26.5 0 36.37 0 48.5C0 49.6 0.9 50.5 2 50.5C3.1 50.5 4 49.6 4 48.5C4 38.58 12.08 30.5 22 30.5C31.25 30.5 38.89 37.51 39.89 46.5H16C14.9 46.5 14 47.4 14 48.5C14 49.6 14.9 50.5 16 50.5H42C43.1 50.5 44 49.6 44 48.5C44 36.37 34.13 26.5 22 26.5Z" fill="#00003C"/>
</svg>
