<svg width="22" height="22" viewBox="0 0 22 22" fill="none" xmlns="http://www.w3.org/2000/svg">
<path d="M18.5 15.5V18C18.5 18.2758 18.2758 18.5 18 18.5H3.625C3.0034 18.5 2.5 17.9966 2.5 17.375V3.625C2.5 3.00338 3.00338 2.5 3.625 2.5H16.75C17.0258 2.5 17.25 2.72421 17.25 3V4.875C17.25 5.28921 17.5858 5.625 18 5.625C18.4142 5.625 18.75 5.28921 18.75 4.875V3C18.75 1.89579 17.8542 1 16.75 1H3.625C2.17496 1 1 2.17496 1 3.625V17.375C1 18.825 2.17496 20 3.625 20H18C19.1042 20 20 19.1042 20 18V15.5C20 15.0858 19.6642 14.75 19.25 14.75C18.8358 14.75 18.5 15.0858 18.5 15.5Z" fill="black"/>
<path d="M19.25 16.25H16.125C13.985 16.25 12.25 14.515 12.25 12.375C12.25 10.235 13.985 8.5 16.125 8.5H19.25C20.3542 8.5 21.25 9.39579 21.25 10.5V14.25C21.25 15.3542 20.3542 16.25 19.25 16.25ZM19.25 14.75C19.5258 14.75 19.75 14.5258 19.75 14.25V10.5C19.75 10.2242 19.5258 10 19.25 10H16.125C14.8134 10 13.75 11.0634 13.75 12.375C13.75 13.6866 14.8134 14.75 16.125 14.75H19.25Z" fill="black"/>
<path d="M16.125 12.8125C16.3667 12.8125 16.5625 12.6167 16.5625 12.375C16.5625 12.1333 16.3667 11.9375 16.125 11.9375C15.8833 11.9375 15.6875 12.1333 15.6875 12.375C15.6875 12.6167 15.8833 12.8125 16.125 12.8125ZM16.125 11.3125C16.7117 11.3125 17.1875 11.7883 17.1875 12.375C17.1875 12.9617 16.7117 13.4375 16.125 13.4375C15.5383 13.4375 15.0625 12.9617 15.0625 12.375C15.0625 11.7883 15.5383 11.3125 16.125 11.3125Z" fill="black"/>
<path d="M20.0012 9.24975V6.12475C20.0012 5.02053 19.1054 4.12475 18.0012 4.12475H5.81376C5.50864 4.13817 5.25484 3.9975 5.12305 3.7623C4.92057 3.40094 4.46349 3.27215 4.10214 3.47463C3.74079 3.67711 3.612 4.13419 3.81448 4.49554C4.22406 5.22648 5.01164 5.66301 5.84873 5.62393L18.0012 5.62475C18.277 5.62475 18.5012 5.84896 18.5012 6.12475V9.24975C18.5012 9.66396 18.837 9.99975 19.2512 9.99975C19.6654 9.99975 20.0012 9.66396 20.0012 9.24975Z" fill="black"/>
</svg>
