<svg width="22" height="22" viewBox="0 0 22 22" fill="none" xmlns="http://www.w3.org/2000/svg">
<path d="M8.75 2.5C7.78338 2.5 7 3.28338 7 4.25C7 5.21662 7.78338 6 8.75 6C9.71662 6 10.5 5.21662 10.5 4.25C10.5 3.28338 9.71662 2.5 8.75 2.5ZM8.75 1C10.545 1 12 2.45496 12 4.25C12 6.04504 10.545 7.5 8.75 7.5C6.95496 7.5 5.5 6.04504 5.5 4.25C5.5 2.45496 6.95496 1 8.75 1Z" fill="black"/>
<path d="M17 16.75C17 14.955 15.545 13.5 13.75 13.5H10C9.72421 13.5 9.5 13.2758 9.5 13V6.75C9.5 6.33579 9.16421 6 8.75 6C8.33579 6 8 6.33579 8 6.75V13C8 14.1042 8.89579 15 10 15H13.75C14.7166 15 15.5 15.7834 15.5 16.75V20.5C15.5 20.9142 15.8358 21.25 16.25 21.25H17.5C17.9142 21.25 18.25 20.9142 18.25 20.5C18.25 20.0858 17.9142 19.75 17.5 19.75H17V16.75Z" fill="black"/>
<path d="M13.75 9.75H8.75C5.57411 9.75 3 12.3241 3 15.5C3 18.6759 5.57411 21.25 8.75 21.25C11.9259 21.25 14.5 18.6759 14.5 15.5V14.25C14.5 13.8358 14.1642 13.5 13.75 13.5C13.3358 13.5 13 13.8358 13 14.25V15.5C13 17.8475 11.0975 19.75 8.75 19.75C6.40253 19.75 4.5 17.8475 4.5 15.5C4.5 13.1525 6.40253 11.25 8.75 11.25H13.75C14.1642 11.25 14.5 10.9142 14.5 10.5C14.5 10.0858 14.1642 9.75 13.75 9.75Z" fill="black"/>
</svg>
